<svg xmlns="http://www.w3.org/2000/svg" xmlns:xlink="http://www.w3.org/1999/xlink" version="1.1" x="0px" y="0px" viewBox="0 0 52 65" enable-background="new 0 0 52 52" xml:space="preserve"><g><circle fill="none" stroke="#000000" stroke-width="2" stroke-miterlimit="10" cx="27.5044327" cy="7.0000458" r="4"/><path fill="none" stroke="#000000" stroke-width="2" stroke-miterlimit="10" d="M43.1653824,12.9999542   c-0.6179199-0.9189453-1.8703613-1.1674805-2.7973633-0.5546875l-6.6309814,4.3828125L15.5440426,11.817337l-6.2033691,4.3925781   c-0.9064941,0.6418457-1.1166992,1.890625-0.4694824,2.7895508h0.0002441   c0.6474609,0.8994141,1.9077148,1.107666,2.8144531,0.465332l4.6343994-3.2822266l6.8428955,1.8842773l-1.6586914,12.9331055   l-1.3859863,4h-8.6142578c-1.1044922,0-2,0.8955078-2,2s0.8955078,2,2,2h11.3857422l2.9697266-7.9177246l6.5361347,8.9880371   l-2.7182636,6.1171875c-0.4484863,1.0092773,0.0058594,2.190918,1.0148926,2.6394043   c1.0092773,0.4489746,2.191164-0.0056152,2.6398945-1.0148926l3.6572266-8.2280273l-7.4851093-10.2912598l1.524292-9.0598145   l3.4095478,0.9389648l8.1676025-5.3984375C43.5329361,15.1605988,43.7833023,13.9188995,43.1653824,12.9999542z"/></g></svg>
