<svg viewBox="0 0 128 128" xmlns="http://www.w3.org/2000/svg">
  <g>
    <path id="arrow" d="M18.233,81.666l-0.016,0.003c0.006,0.012,0.01,0.022,0.016,0.036c0.008,0.101,0.026,0.195,0.04,0.293   c0.002,0.017,0,0.029,0.002,0.045l3.929,25.514c0.476,3.098,3.374,5.221,6.47,4.743c3.098-0.476,5.222-3.372,4.746-6.471   l-0.611-3.965c0.712,0.587,1.43,1.169,2.175,1.714c10.106,7.42,23.111,10.987,36.486,8.926c13.372-2.056,24.702-9.37,32.109-19.487   c3.662-4.988,6.353-10.695,7.922-16.793l-15.479-4.262c-1.044,4.191-2.882,8.109-5.405,11.552   c-5.012,6.824-12.566,11.713-21.593,13.105c-9.027,1.388-17.705-1.002-24.536-6.004c-0.841-0.616-1.645-1.282-2.424-1.976   l4.488,0.435c2.872,0.276,5.445-2.025,5.748-5.144c0.3-3.12-1.783-5.873-4.655-6.15l-23.659-2.291   c-2.568-0.248-4.884,1.572-5.564,4.188c-0.05,0.185-0.076,0.374-0.109,0.565c-0.021,0.132-0.061,0.255-0.074,0.39   c-0.004,0.041,0.002,0.077-0.001,0.114c-0.013,0.174-0.004,0.351-0.002,0.528C18.235,81.406,18.224,81.539,18.233,81.666z" fill="#232323" />
    <use href="#arrow" transform="rotate(180 63 40) translate(0 -50)" />
  </g>
</svg>
