<svg viewBox="0 0 57 37" xmlns="http://www.w3.org/2000/svg">
  <path
    d="m56.1079 1.5364a5.25 5.25 0 00-3.05 1.22 11.53 11.53 0 00-2.45 4l-12.86 29.59q-.13.41-.71.41a.79.79 0 01-.71-.41l-7.21-15.42-8.3 15.41a.79.79 0 01-.71.41.71.71 0 01-.73-.41l-12.63-29.6a10.35 10.35 0 00-2.49-3.81 6.74 6.74 0 00-3.66-1.35.49.49 0 01-.38-.22.78.78 0 01-.18-.5q0-.72.4-.72 1.69 0 3.53.15t3.23.15q1.54 0 3.63-.15t3.88-.15q.4 0 .4.72t-.25.72a4.9 4.9 0 00-2.66.88 2.35 2.35 0 00-1 2 4.06 4.06 0 00.4 1.55l10.49 24 5.93-11.44-5.53-11.83a15.33 15.33 0 00-2.45-4.08 4.84 4.84 0 00-2.9-1.12.45.45 0 01-.34-.22.82.82 0 01-.16-.5q0-.72.35-.72a28.63 28.63 0 013.1.15 25.75 25.75 0 002.9.15q1.51 0 3.2-.15t3.43-.15q.4 0 .4.72t-.25.72q-3.38.23-3.38 2a6.4 6.4 0 00.79 2.39l3.66 7.58 3.63-6.93a5.67 5.67 0 00.76-2.47q0-2.37-3.38-2.53-.3 0-.3-.72a.88.88 0 01.15-.49q.15-.23.3-.23 1.21 0 3 .15t2.77.15q.78 0 2.29-.13 1.92-.18 3.2-.18.3 0 .3.62 0 .82-.55.82a6.25 6.25 0 00-3.16 1.11 14.16 14.16 0 00-3 4.1l-4.85 9.15 6.56 13.66 9.68-23a6.3 6.3 0 00.5-2.32q0-2.53-3.38-2.68-.3 0-.3-.72t.45-.72q1.24 0 2.93.15t2.62.15a24.83 24.83 0 002.57-.15 27 27 0 012.75-.2q.35 0 .35.62a.94.94 0 01-.19.57.53.53 0 01-.43.25z"
    fill="#000222" />
</svg>


